<svg xmlns="http://www.w3.org/2000/svg" xmlns:xlink="http://www.w3.org/1999/xlink" width="500" zoomAndPan="magnify" viewBox="0 0 375 374.999991" height="500" preserveAspectRatio="xMidYMid meet" version="1.0"><defs><clipPath id="7422cbd995"><path d="M 37.5 28.953125 L 296.25 28.953125 L 296.25 330.21875 L 37.5 330.21875 Z M 37.5 28.953125 " clip-rule="nonzero"/></clipPath><clipPath id="daf136c469"><path d="M 166.953125 28.953125 L 296.402344 104.269531 L 296.402344 254.902344 L 166.953125 330.21875 L 37.5 254.902344 L 37.5 104.269531 Z M 166.953125 28.953125 " clip-rule="nonzero"/></clipPath><clipPath id="13ad36a2a3"><path d="M 161.890625 142.171875 L 337.097656 142.171875 L 337.097656 346.050781 L 161.890625 346.050781 Z M 161.890625 142.171875 " clip-rule="nonzero"/></clipPath><clipPath id="3162f180bd"><path d="M 249.492188 142.171875 L 337.097656 193.140625 L 337.097656 295.078125 L 249.492188 346.050781 L 161.890625 295.078125 L 161.890625 193.140625 Z M 249.492188 142.171875 " clip-rule="nonzero"/></clipPath></defs><g clip-path="url(#7422cbd995)"><g clip-path="url(#daf136c469)"><path stroke-linecap="butt" transform="matrix(0.75, 0, 0, 0.75, 37.500002, 28.95243)" fill="none" stroke-linejoin="miter" d="M 172.598956 0.000926962 L 345.203123 100.422802 L 345.203123 301.266552 L 172.598956 401.688428 L -0.00000271667 301.266552 L -0.00000271667 100.422802 Z M 172.598956 0.000926962 " stroke="#ffffff" stroke-width="8" stroke-opacity="1" stroke-miterlimit="4"/></g></g><g clip-path="url(#13ad36a2a3)"><g clip-path="url(#3162f180bd)"><path stroke-linecap="butt" transform="matrix(0.75, 0, 0, 0.75, 161.889119, 142.171997)" fill="none" stroke-linejoin="miter" d="M 116.804099 -0.000162752 L 233.611399 67.958175 L 233.611399 203.874851 L 116.804099 271.838397 L 0.00200844 203.874851 L 0.00200844 67.958175 Z M 116.804099 -0.000162752 " stroke="#ffffff" stroke-width="8" stroke-opacity="1" stroke-miterlimit="4"/></g></g></svg>