<svg xmlns="http://www.w3.org/2000/svg" xmlns:xlink="http://www.w3.org/1999/xlink" width="500" zoomAndPan="magnify" viewBox="0 0 375 374.999991" height="500" preserveAspectRatio="xMidYMid meet" version="1.0"><defs><g/><clipPath id="215dbf265d"><path d="M 32.105469 116.34375 L 148.292969 116.34375 L 148.292969 251.34375 L 32.105469 251.34375 Z M 32.105469 116.34375 " clip-rule="nonzero"/></clipPath><clipPath id="3c111c7776"><path d="M 90.199219 116.34375 L 148.292969 150.144531 L 148.292969 217.742188 L 90.199219 251.542969 L 32.105469 217.742188 L 32.105469 150.144531 Z M 90.199219 116.34375 " clip-rule="nonzero"/></clipPath><clipPath id="f47ff739fc"><path d="M 87.929688 167.15625 L 166.550781 167.15625 L 166.550781 258.644531 L 87.929688 258.644531 Z M 87.929688 167.15625 " clip-rule="nonzero"/></clipPath><clipPath id="7ab1861f3b"><path d="M 127.238281 167.15625 L 166.550781 190.027344 L 166.550781 235.773438 L 127.238281 258.644531 L 87.929688 235.773438 L 87.929688 190.027344 Z M 127.238281 167.15625 " clip-rule="nonzero"/></clipPath></defs><g clip-path="url(#215dbf265d)"><g clip-path="url(#3c111c7776)"><path stroke-linecap="butt" transform="matrix(0.75, 0, 0, 0.75, 32.106609, 116.344094)" fill="none" stroke-linejoin="miter" d="M 77.456818 -0.000458613 L 154.915157 45.067253 L 154.915157 135.197467 L 77.456818 180.265178 L -0.00152016 135.197467 L -0.00152016 45.067253 Z M 77.456818 -0.000458613 " stroke="#ffffff" stroke-width="8" stroke-opacity="1" stroke-miterlimit="4"/></g></g><g clip-path="url(#f47ff739fc)"><g clip-path="url(#7ab1861f3b)"><path stroke-linecap="butt" transform="matrix(0.75, 0, 0, 0.75, 87.928328, 167.157191)" fill="none" stroke-linejoin="miter" d="M 52.413277 -0.00125416 L 104.829951 30.493541 L 104.829951 91.488341 L 52.413277 121.983137 L 0.00181223 91.488341 L 0.00181223 30.493541 Z M 52.413277 -0.00125416 " stroke="#ffffff" stroke-width="8" stroke-opacity="1" stroke-miterlimit="4"/></g></g><g fill="#ffffff" fill-opacity="1"><g transform="translate(170.993285, 200.435963)"><g><path d="M 10.546875 -23.03125 C 10.285156 -23.070312 9.992188 -23.097656 9.671875 -23.109375 C 9.359375 -23.128906 9.054688 -23.140625 8.765625 -23.140625 C 7.660156 -23.140625 6.8125 -22.796875 6.21875 -22.109375 C 5.632812 -21.421875 5.34375 -20.476562 5.34375 -19.28125 L 5.34375 -18.109375 L 10.21875 -18.109375 C 10.476562 -18.109375 10.609375 -17.976562 10.609375 -17.71875 L 10.609375 -15.953125 C 10.609375 -15.671875 10.476562 -15.53125 10.21875 -15.53125 L 5.34375 -15.53125 L 5.34375 -0.390625 C 5.34375 -0.128906 5.203125 0 4.921875 0 L 2.828125 0 C 2.566406 0 2.4375 -0.128906 2.4375 -0.390625 L 2.4375 -19.25 C 2.4375 -21.363281 3.007812 -22.960938 4.15625 -24.046875 C 5.300781 -25.140625 6.710938 -25.6875 8.390625 -25.6875 C 9.160156 -25.6875 9.863281 -25.648438 10.5 -25.578125 C 10.757812 -25.554688 10.890625 -25.398438 10.890625 -25.109375 L 10.890625 -23.421875 C 10.890625 -23.160156 10.773438 -23.03125 10.546875 -23.03125 Z M 10.546875 -23.03125 "/></g></g></g><g fill="#ffffff" fill-opacity="1"><g transform="translate(182.204706, 200.435963)"><g><path d="M 5.65625 -23.421875 C 5.65625 -22.921875 5.488281 -22.503906 5.15625 -22.171875 C 4.832031 -21.847656 4.421875 -21.6875 3.921875 -21.6875 C 3.429688 -21.6875 3.015625 -21.847656 2.671875 -22.171875 C 2.328125 -22.503906 2.15625 -22.921875 2.15625 -23.421875 C 2.15625 -23.941406 2.328125 -24.359375 2.671875 -24.671875 C 3.015625 -24.992188 3.429688 -25.15625 3.921875 -25.15625 C 4.421875 -25.15625 4.832031 -24.992188 5.15625 -24.671875 C 5.488281 -24.359375 5.65625 -23.941406 5.65625 -23.421875 Z M 2.859375 0 C 2.578125 0 2.4375 -0.128906 2.4375 -0.390625 L 2.4375 -17.859375 C 2.4375 -18.140625 2.578125 -18.28125 2.859375 -18.28125 L 4.953125 -18.28125 C 5.210938 -18.28125 5.34375 -18.140625 5.34375 -17.859375 L 5.34375 -0.390625 C 5.34375 -0.128906 5.210938 0 4.953125 0 Z M 2.859375 0 "/></g></g></g><g fill="#ffffff" fill-opacity="1"><g transform="translate(189.985498, 200.435963)"><g><path d="M 2.796875 0 C 2.535156 0 2.40625 -0.128906 2.40625 -0.390625 L 2.40625 -16.796875 C 2.40625 -17.035156 2.5 -17.203125 2.6875 -17.296875 C 3.695312 -17.722656 4.773438 -18.054688 5.921875 -18.296875 C 7.066406 -18.546875 8.253906 -18.671875 9.484375 -18.671875 C 11.054688 -18.671875 12.4375 -18.410156 13.625 -17.890625 C 14.820312 -17.378906 15.753906 -16.5625 16.421875 -15.4375 C 17.097656 -14.320312 17.4375 -12.851562 17.4375 -11.03125 L 17.4375 -0.390625 C 17.4375 -0.128906 17.296875 0 17.015625 0 L 14.921875 0 C 14.671875 0 14.546875 -0.128906 14.546875 -0.390625 L 14.546875 -10.96875 C 14.546875 -12.800781 14.101562 -14.109375 13.21875 -14.890625 C 12.332031 -15.671875 11.085938 -16.0625 9.484375 -16.0625 C 8.753906 -16.0625 8.007812 -16 7.25 -15.875 C 6.5 -15.757812 5.851562 -15.609375 5.3125 -15.421875 L 5.3125 -0.390625 C 5.3125 -0.128906 5.164062 0 4.875 0 Z M 2.796875 0 "/></g></g></g><g fill="#ffffff" fill-opacity="1"><g transform="translate(209.685059, 200.435963)"><g><path d="M 13.90625 -24.90625 C 13.90625 -25.164062 14.046875 -25.296875 14.328125 -25.296875 L 16.40625 -25.296875 C 16.664062 -25.296875 16.796875 -25.164062 16.796875 -24.90625 L 16.796875 -1.3125 C 16.796875 -1.09375 16.691406 -0.9375 16.484375 -0.84375 C 15.472656 -0.46875 14.363281 -0.171875 13.15625 0.046875 C 11.957031 0.273438 10.789062 0.390625 9.65625 0.390625 C 8.125 0.390625 6.757812 0.125 5.5625 -0.40625 C 4.375 -0.9375 3.441406 -1.765625 2.765625 -2.890625 C 2.097656 -4.023438 1.765625 -5.476562 1.765625 -7.25 L 1.765625 -11.171875 C 1.765625 -12.753906 2.09375 -14.101562 2.75 -15.21875 C 3.414062 -16.34375 4.328125 -17.195312 5.484375 -17.78125 C 6.640625 -18.375 7.957031 -18.671875 9.4375 -18.671875 C 10.269531 -18.671875 11.066406 -18.570312 11.828125 -18.375 C 12.597656 -18.175781 13.289062 -17.910156 13.90625 -17.578125 Z M 4.703125 -7.25 C 4.703125 -5.382812 5.144531 -4.066406 6.03125 -3.296875 C 6.914062 -2.535156 8.148438 -2.15625 9.734375 -2.15625 C 10.484375 -2.15625 11.226562 -2.210938 11.96875 -2.328125 C 12.71875 -2.453125 13.363281 -2.617188 13.90625 -2.828125 L 13.90625 -14.828125 C 13.332031 -15.222656 12.691406 -15.53125 11.984375 -15.75 C 11.285156 -15.976562 10.519531 -16.09375 9.6875 -16.09375 C 8.113281 -16.09375 6.890625 -15.695312 6.015625 -14.90625 C 5.140625 -14.113281 4.703125 -12.867188 4.703125 -11.171875 Z M 4.703125 -7.25 "/></g></g></g><g fill="#ffffff" fill-opacity="1"><g transform="translate(228.88948, 200.435963)"><g><path d="M 15.59375 -5.171875 C 15.59375 -3.960938 15.28125 -2.945312 14.65625 -2.125 C 14.03125 -1.300781 13.179688 -0.675781 12.109375 -0.25 C 11.035156 0.175781 9.804688 0.390625 8.421875 0.390625 C 7.191406 0.390625 5.976562 0.207031 4.78125 -0.15625 C 3.59375 -0.519531 2.472656 -1.09375 1.421875 -1.875 C 1.222656 -2.019531 1.1875 -2.207031 1.3125 -2.4375 L 2.265625 -4.0625 C 2.398438 -4.300781 2.585938 -4.335938 2.828125 -4.171875 C 3.679688 -3.535156 4.582031 -3.046875 5.53125 -2.703125 C 6.488281 -2.359375 7.472656 -2.1875 8.484375 -2.1875 C 9.671875 -2.1875 10.664062 -2.425781 11.46875 -2.90625 C 12.269531 -3.394531 12.671875 -4.097656 12.671875 -5.015625 C 12.671875 -5.679688 12.457031 -6.195312 12.03125 -6.5625 C 11.601562 -6.925781 11.070312 -7.203125 10.4375 -7.390625 C 9.800781 -7.578125 9.148438 -7.734375 8.484375 -7.859375 C 7.847656 -7.992188 7.132812 -8.164062 6.34375 -8.375 C 5.5625 -8.59375 4.804688 -8.90625 4.078125 -9.3125 C 3.359375 -9.726562 2.765625 -10.269531 2.296875 -10.9375 C 1.828125 -11.613281 1.59375 -12.460938 1.59375 -13.484375 C 1.59375 -14.679688 1.925781 -15.660156 2.59375 -16.421875 C 3.269531 -17.191406 4.140625 -17.757812 5.203125 -18.125 C 6.265625 -18.488281 7.382812 -18.671875 8.5625 -18.671875 C 9.664062 -18.671875 10.722656 -18.53125 11.734375 -18.25 C 12.753906 -17.96875 13.75 -17.554688 14.71875 -17.015625 C 14.976562 -16.898438 15.023438 -16.722656 14.859375 -16.484375 L 13.90625 -14.890625 C 13.78125 -14.660156 13.601562 -14.613281 13.375 -14.75 C 12.644531 -15.15625 11.859375 -15.472656 11.015625 -15.703125 C 10.179688 -15.941406 9.316406 -16.0625 8.421875 -16.0625 C 7.191406 -16.0625 6.222656 -15.832031 5.515625 -15.375 C 4.804688 -14.914062 4.453125 -14.285156 4.453125 -13.484375 C 4.453125 -12.835938 4.660156 -12.328125 5.078125 -11.953125 C 5.492188 -11.578125 6.050781 -11.28125 6.75 -11.0625 C 7.457031 -10.851562 8.226562 -10.664062 9.0625 -10.5 C 9.769531 -10.363281 10.503906 -10.1875 11.265625 -9.96875 C 12.035156 -9.757812 12.742188 -9.472656 13.390625 -9.109375 C 14.035156 -8.742188 14.5625 -8.242188 14.96875 -7.609375 C 15.382812 -6.972656 15.59375 -6.160156 15.59375 -5.171875 Z M 15.59375 -5.171875 "/></g></g></g><g fill="#ffffff" fill-opacity="1"><g transform="translate(245.688925, 200.435963)"><g><path d="M 2.796875 0 C 2.535156 0 2.40625 -0.128906 2.40625 -0.390625 L 2.40625 -16.796875 C 2.40625 -17.035156 2.5 -17.203125 2.6875 -17.296875 C 3.695312 -17.722656 4.773438 -18.054688 5.921875 -18.296875 C 7.066406 -18.546875 8.253906 -18.671875 9.484375 -18.671875 C 11.054688 -18.671875 12.4375 -18.410156 13.625 -17.890625 C 14.820312 -17.378906 15.753906 -16.5625 16.421875 -15.4375 C 17.097656 -14.320312 17.4375 -12.851562 17.4375 -11.03125 L 17.4375 -0.390625 C 17.4375 -0.128906 17.296875 0 17.015625 0 L 14.921875 0 C 14.671875 0 14.546875 -0.128906 14.546875 -0.390625 L 14.546875 -10.96875 C 14.546875 -12.800781 14.101562 -14.109375 13.21875 -14.890625 C 12.332031 -15.671875 11.085938 -16.0625 9.484375 -16.0625 C 8.753906 -16.0625 8.007812 -16 7.25 -15.875 C 6.5 -15.757812 5.851562 -15.609375 5.3125 -15.421875 L 5.3125 -0.390625 C 5.3125 -0.128906 5.164062 0 4.875 0 Z M 2.796875 0 "/></g></g></g><g fill="#ffffff" fill-opacity="1"><g transform="translate(265.388485, 200.435963)"><g><path d="M 17.328125 -6.546875 C 17.328125 -4.472656 16.628906 -2.796875 15.234375 -1.515625 C 13.847656 -0.242188 11.953125 0.390625 9.546875 0.390625 C 7.171875 0.390625 5.28125 -0.242188 3.875 -1.515625 C 2.46875 -2.796875 1.765625 -4.472656 1.765625 -6.546875 L 1.765625 -11.640625 C 1.765625 -13.023438 2.082031 -14.242188 2.71875 -15.296875 C 3.351562 -16.347656 4.253906 -17.171875 5.421875 -17.765625 C 6.597656 -18.367188 7.972656 -18.671875 9.546875 -18.671875 C 11.148438 -18.671875 12.535156 -18.367188 13.703125 -17.765625 C 14.867188 -17.171875 15.765625 -16.347656 16.390625 -15.296875 C 17.015625 -14.242188 17.328125 -13.023438 17.328125 -11.640625 Z M 4.703125 -6.546875 C 4.703125 -5.222656 5.113281 -4.164062 5.9375 -3.375 C 6.769531 -2.582031 7.972656 -2.1875 9.546875 -2.1875 C 11.148438 -2.1875 12.363281 -2.582031 13.1875 -3.375 C 14.019531 -4.164062 14.4375 -5.222656 14.4375 -6.546875 L 14.4375 -11.640625 C 14.4375 -12.984375 14.019531 -14.054688 13.1875 -14.859375 C 12.363281 -15.660156 11.148438 -16.0625 9.546875 -16.0625 C 7.972656 -16.0625 6.769531 -15.660156 5.9375 -14.859375 C 5.113281 -14.054688 4.703125 -12.984375 4.703125 -11.640625 Z M 4.703125 -6.546875 "/></g></g></g><g fill="#ffffff" fill-opacity="1"><g transform="translate(284.274578, 200.435963)"><g><path d="M 6.328125 0 C 6.066406 0 5.925781 -0.117188 5.90625 -0.359375 L 0.640625 -17.796875 C 0.566406 -18.117188 0.671875 -18.28125 0.953125 -18.28125 L 3.140625 -18.28125 C 3.378906 -18.28125 3.535156 -18.164062 3.609375 -17.9375 L 5.9375 -9.546875 C 6.082031 -9.054688 6.253906 -8.410156 6.453125 -7.609375 C 6.648438 -6.804688 6.847656 -6.003906 7.046875 -5.203125 C 7.253906 -4.398438 7.414062 -3.765625 7.53125 -3.296875 L 7.609375 -3.296875 C 7.835938 -4.253906 8.078125 -5.226562 8.328125 -6.21875 C 8.578125 -7.21875 8.832031 -8.148438 9.09375 -9.015625 L 11.78125 -17.609375 C 11.851562 -17.847656 11.992188 -17.96875 12.203125 -17.96875 L 14.546875 -17.96875 C 14.753906 -17.96875 14.894531 -17.847656 14.96875 -17.609375 L 17.65625 -9.015625 C 17.914062 -8.148438 18.171875 -7.21875 18.421875 -6.21875 C 18.679688 -5.226562 18.929688 -4.253906 19.171875 -3.296875 L 19.203125 -3.296875 C 19.328125 -3.765625 19.488281 -4.394531 19.6875 -5.1875 C 19.882812 -5.976562 20.085938 -6.78125 20.296875 -7.59375 C 20.515625 -8.40625 20.679688 -9.054688 20.796875 -9.546875 L 23.171875 -17.9375 C 23.191406 -18.164062 23.332031 -18.28125 23.59375 -18.28125 L 25.78125 -18.28125 C 26.113281 -18.28125 26.222656 -18.117188 26.109375 -17.796875 L 20.875 -0.359375 C 20.800781 -0.117188 20.644531 0 20.40625 0 L 17.9375 0 C 17.675781 0 17.535156 -0.117188 17.515625 -0.359375 L 14.546875 -9.96875 C 14.304688 -10.75 14.09375 -11.535156 13.90625 -12.328125 C 13.71875 -13.117188 13.5625 -13.804688 13.4375 -14.390625 L 13.34375 -14.390625 C 13.195312 -13.804688 13.019531 -13.117188 12.8125 -12.328125 C 12.613281 -11.535156 12.410156 -10.75 12.203125 -9.96875 L 9.234375 -0.359375 C 9.210938 -0.117188 9.070312 0 8.8125 0 Z M 6.328125 0 "/></g></g></g><g fill="#ffffff" fill-opacity="1"><g transform="translate(309.597422, 200.435963)"><g><path d="M 5.703125 -1.765625 C 5.703125 -1.203125 5.515625 -0.738281 5.140625 -0.375 C 4.773438 -0.0078125 4.3125 0.171875 3.75 0.171875 C 3.15625 0.171875 2.679688 -0.0078125 2.328125 -0.375 C 1.972656 -0.738281 1.796875 -1.203125 1.796875 -1.765625 C 1.796875 -2.359375 1.972656 -2.835938 2.328125 -3.203125 C 2.679688 -3.566406 3.15625 -3.75 3.75 -3.75 C 4.3125 -3.75 4.773438 -3.566406 5.140625 -3.203125 C 5.515625 -2.835938 5.703125 -2.359375 5.703125 -1.765625 Z M 5.703125 -1.765625 "/></g></g></g><g fill="#ffffff" fill-opacity="1"><g transform="translate(317.059907, 200.435963)"><g><path d="M 2.15625 -16.84375 C 2.976562 -17.40625 3.957031 -17.847656 5.09375 -18.171875 C 6.226562 -18.503906 7.476562 -18.671875 8.84375 -18.671875 C 11.007812 -18.671875 12.722656 -18.097656 13.984375 -16.953125 C 15.253906 -15.816406 15.890625 -14.101562 15.890625 -11.8125 L 15.890625 -1.203125 C 15.890625 -0.960938 15.78125 -0.8125 15.5625 -0.75 C 14.738281 -0.4375 13.722656 -0.171875 12.515625 0.046875 C 11.316406 0.273438 10.054688 0.390625 8.734375 0.390625 C 7.410156 0.390625 6.171875 0.203125 5.015625 -0.171875 C 3.867188 -0.554688 2.929688 -1.175781 2.203125 -2.03125 C 1.484375 -2.894531 1.125 -4.019531 1.125 -5.40625 C 1.125 -7.300781 1.828125 -8.710938 3.234375 -9.640625 C 4.640625 -10.566406 6.472656 -11.03125 8.734375 -11.03125 C 9.460938 -11.03125 10.203125 -10.988281 10.953125 -10.90625 C 11.710938 -10.832031 12.390625 -10.734375 12.984375 -10.609375 L 12.984375 -11.75 C 12.984375 -13.1875 12.65625 -14.265625 12 -14.984375 C 11.351562 -15.703125 10.265625 -16.0625 8.734375 -16.0625 C 7.742188 -16.0625 6.8125 -15.9375 5.9375 -15.6875 C 5.070312 -15.4375 4.332031 -15.125 3.71875 -14.75 C 3.5 -14.613281 3.320312 -14.648438 3.1875 -14.859375 L 2.15625 -16.34375 C 2.039062 -16.550781 2.039062 -16.71875 2.15625 -16.84375 Z M 4.03125 -5.40625 C 4.03125 -4.351562 4.472656 -3.550781 5.359375 -3 C 6.242188 -2.457031 7.367188 -2.1875 8.734375 -2.1875 C 9.535156 -2.1875 10.3125 -2.25 11.0625 -2.375 C 11.820312 -2.507812 12.460938 -2.660156 12.984375 -2.828125 L 12.984375 -8.140625 C 12.421875 -8.253906 11.753906 -8.351562 10.984375 -8.4375 C 10.210938 -8.519531 9.460938 -8.5625 8.734375 -8.5625 C 7.128906 -8.5625 5.941406 -8.273438 5.171875 -7.703125 C 4.410156 -7.140625 4.03125 -6.375 4.03125 -5.40625 Z M 4.03125 -5.40625 "/></g></g></g><g fill="#ffffff" fill-opacity="1"><g transform="translate(335.132576, 200.435963)"><g><path d="M 5.65625 -23.421875 C 5.65625 -22.921875 5.488281 -22.503906 5.15625 -22.171875 C 4.832031 -21.847656 4.421875 -21.6875 3.921875 -21.6875 C 3.429688 -21.6875 3.015625 -21.847656 2.671875 -22.171875 C 2.328125 -22.503906 2.15625 -22.921875 2.15625 -23.421875 C 2.15625 -23.941406 2.328125 -24.359375 2.671875 -24.671875 C 3.015625 -24.992188 3.429688 -25.15625 3.921875 -25.15625 C 4.421875 -25.15625 4.832031 -24.992188 5.15625 -24.671875 C 5.488281 -24.359375 5.65625 -23.941406 5.65625 -23.421875 Z M 2.859375 0 C 2.578125 0 2.4375 -0.128906 2.4375 -0.390625 L 2.4375 -17.859375 C 2.4375 -18.140625 2.578125 -18.28125 2.859375 -18.28125 L 4.953125 -18.28125 C 5.210938 -18.28125 5.34375 -18.140625 5.34375 -17.859375 L 5.34375 -0.390625 C 5.34375 -0.128906 5.210938 0 4.953125 0 Z M 2.859375 0 "/></g></g></g></svg>