<svg xmlns="http://www.w3.org/2000/svg" xmlns:xlink="http://www.w3.org/1999/xlink" width="500" zoomAndPan="magnify" viewBox="0 0 375 374.999991" height="500" preserveAspectRatio="xMidYMid meet" version="1.0"><defs><g/><clipPath id="3840b2c04d"><path d="M 32.105469 116.34375 L 148.292969 116.34375 L 148.292969 251.34375 L 32.105469 251.34375 Z M 32.105469 116.34375 " clip-rule="nonzero"/></clipPath><clipPath id="72da43d135"><path d="M 90.199219 116.34375 L 148.292969 150.144531 L 148.292969 217.742188 L 90.199219 251.542969 L 32.105469 217.742188 L 32.105469 150.144531 Z M 90.199219 116.34375 " clip-rule="nonzero"/></clipPath><clipPath id="ef95c2719b"><path d="M 87.929688 167.15625 L 166.550781 167.15625 L 166.550781 258.644531 L 87.929688 258.644531 Z M 87.929688 167.15625 " clip-rule="nonzero"/></clipPath><clipPath id="e9ad2ad106"><path d="M 127.238281 167.15625 L 166.550781 190.027344 L 166.550781 235.773438 L 127.238281 258.644531 L 87.929688 235.773438 L 87.929688 190.027344 Z M 127.238281 167.15625 " clip-rule="nonzero"/></clipPath><clipPath id="58b2ef16e2"><rect x="0" width="173" y="0" height="50"/></clipPath></defs><g clip-path="url(#3840b2c04d)"><g clip-path="url(#72da43d135)"><path stroke-linecap="butt" transform="matrix(0.75, 0, 0, 0.75, 32.106609, 116.344094)" fill="none" stroke-linejoin="miter" d="M 77.456818 -0.000458613 L 154.915157 45.067253 L 154.915157 135.197467 L 77.456818 180.265178 L -0.00152016 135.197467 L -0.00152016 45.067253 Z M 77.456818 -0.000458613 " stroke="#38b6ff" stroke-width="8" stroke-opacity="1" stroke-miterlimit="4"/></g></g><g clip-path="url(#ef95c2719b)"><g clip-path="url(#e9ad2ad106)"><path stroke-linecap="butt" transform="matrix(0.75, 0, 0, 0.75, 87.928328, 167.157191)" fill="none" stroke-linejoin="miter" d="M 52.413277 -0.00125416 L 104.829951 30.493541 L 104.829951 91.488341 L 52.413277 121.983137 L 0.00181223 91.488341 L 0.00181223 30.493541 Z M 52.413277 -0.00125416 " stroke="#38b6ff" stroke-width="8" stroke-opacity="1" stroke-miterlimit="4"/></g></g><g transform="matrix(1, 0, 0, 1, 170, 162)"><g clip-path="url(#58b2ef16e2)"><g fill="#38b6ff" fill-opacity="1"><g transform="translate(0.993284, 38.273294)"><g><path d="M 10.53125 -23.015625 C 10.269531 -23.066406 9.976562 -23.097656 9.65625 -23.109375 C 9.34375 -23.117188 9.046875 -23.125 8.765625 -23.125 C 7.660156 -23.125 6.8125 -22.78125 6.21875 -22.09375 C 5.632812 -21.414062 5.34375 -20.472656 5.34375 -19.265625 L 5.34375 -18.109375 L 10.21875 -18.109375 C 10.476562 -18.109375 10.609375 -17.976562 10.609375 -17.71875 L 10.609375 -15.953125 C 10.609375 -15.660156 10.476562 -15.515625 10.21875 -15.515625 L 5.34375 -15.515625 L 5.34375 -0.390625 C 5.34375 -0.128906 5.203125 0 4.921875 0 L 2.828125 0 C 2.566406 0 2.4375 -0.128906 2.4375 -0.390625 L 2.4375 -19.234375 C 2.4375 -21.359375 3.007812 -22.960938 4.15625 -24.046875 C 5.300781 -25.128906 6.707031 -25.671875 8.375 -25.671875 C 9.15625 -25.671875 9.863281 -25.632812 10.5 -25.5625 C 10.757812 -25.539062 10.890625 -25.390625 10.890625 -25.109375 L 10.890625 -23.40625 C 10.890625 -23.144531 10.769531 -23.015625 10.53125 -23.015625 Z M 10.53125 -23.015625 "/></g></g></g><g fill="#38b6ff" fill-opacity="1"><g transform="translate(12.201387, 38.273294)"><g><path d="M 5.65625 -23.40625 C 5.65625 -22.914062 5.488281 -22.503906 5.15625 -22.171875 C 4.832031 -21.835938 4.421875 -21.671875 3.921875 -21.671875 C 3.429688 -21.671875 3.015625 -21.835938 2.671875 -22.171875 C 2.328125 -22.503906 2.15625 -22.914062 2.15625 -23.40625 C 2.15625 -23.925781 2.328125 -24.34375 2.671875 -24.65625 C 3.015625 -24.976562 3.429688 -25.140625 3.921875 -25.140625 C 4.421875 -25.140625 4.832031 -24.976562 5.15625 -24.65625 C 5.488281 -24.34375 5.65625 -23.925781 5.65625 -23.40625 Z M 2.859375 0 C 2.578125 0 2.4375 -0.128906 2.4375 -0.390625 L 2.4375 -17.859375 C 2.4375 -18.140625 2.578125 -18.28125 2.859375 -18.28125 L 4.953125 -18.28125 C 5.210938 -18.28125 5.34375 -18.140625 5.34375 -17.859375 L 5.34375 -0.390625 C 5.34375 -0.128906 5.210938 0 4.953125 0 Z M 2.859375 0 "/></g></g></g><g fill="#38b6ff" fill-opacity="1"><g transform="translate(19.979876, 38.273294)"><g><path d="M 2.796875 0 C 2.535156 0 2.40625 -0.128906 2.40625 -0.390625 L 2.40625 -16.796875 C 2.40625 -17.035156 2.5 -17.203125 2.6875 -17.296875 C 3.695312 -17.710938 4.773438 -18.046875 5.921875 -18.296875 C 7.066406 -18.546875 8.25 -18.671875 9.46875 -18.671875 C 11.050781 -18.671875 12.4375 -18.410156 13.625 -17.890625 C 14.820312 -17.367188 15.753906 -16.546875 16.421875 -15.421875 C 17.097656 -14.304688 17.4375 -12.84375 17.4375 -11.03125 L 17.4375 -0.390625 C 17.4375 -0.128906 17.296875 0 17.015625 0 L 14.921875 0 C 14.660156 0 14.53125 -0.128906 14.53125 -0.390625 L 14.53125 -10.96875 C 14.53125 -12.800781 14.085938 -14.101562 13.203125 -14.875 C 12.316406 -15.65625 11.070312 -16.046875 9.46875 -16.046875 C 8.738281 -16.046875 7.992188 -15.988281 7.234375 -15.875 C 6.484375 -15.757812 5.835938 -15.609375 5.296875 -15.421875 L 5.296875 -0.390625 C 5.296875 -0.128906 5.15625 0 4.875 0 Z M 2.796875 0 "/></g></g></g><g fill="#38b6ff" fill-opacity="1"><g transform="translate(39.673613, 38.273294)"><g><path d="M 13.890625 -24.890625 C 13.890625 -25.148438 14.035156 -25.28125 14.328125 -25.28125 L 16.40625 -25.28125 C 16.664062 -25.28125 16.796875 -25.148438 16.796875 -24.890625 L 16.796875 -1.3125 C 16.796875 -1.09375 16.691406 -0.9375 16.484375 -0.84375 C 15.460938 -0.46875 14.347656 -0.171875 13.140625 0.046875 C 11.941406 0.273438 10.78125 0.390625 9.65625 0.390625 C 8.125 0.390625 6.757812 0.125 5.5625 -0.40625 C 4.375 -0.9375 3.441406 -1.765625 2.765625 -2.890625 C 2.097656 -4.023438 1.765625 -5.476562 1.765625 -7.25 L 1.765625 -11.171875 C 1.765625 -12.753906 2.09375 -14.101562 2.75 -15.21875 C 3.414062 -16.34375 4.328125 -17.195312 5.484375 -17.78125 C 6.640625 -18.375 7.957031 -18.671875 9.4375 -18.671875 C 10.257812 -18.671875 11.054688 -18.566406 11.828125 -18.359375 C 12.597656 -18.160156 13.285156 -17.898438 13.890625 -17.578125 Z M 4.703125 -7.25 C 4.703125 -5.382812 5.144531 -4.066406 6.03125 -3.296875 C 6.914062 -2.535156 8.144531 -2.15625 9.71875 -2.15625 C 10.476562 -2.15625 11.226562 -2.210938 11.96875 -2.328125 C 12.707031 -2.453125 13.347656 -2.617188 13.890625 -2.828125 L 13.890625 -14.8125 C 13.328125 -15.21875 12.691406 -15.53125 11.984375 -15.75 C 11.273438 -15.976562 10.507812 -16.09375 9.6875 -16.09375 C 8.101562 -16.09375 6.875 -15.695312 6 -14.90625 C 5.132812 -14.113281 4.703125 -12.867188 4.703125 -11.171875 Z M 4.703125 -7.25 "/></g></g></g><g fill="#38b6ff" fill-opacity="1"><g transform="translate(58.872352, 38.273294)"><g><path d="M 15.59375 -5.15625 C 15.59375 -3.957031 15.28125 -2.945312 14.65625 -2.125 C 14.03125 -1.300781 13.179688 -0.675781 12.109375 -0.25 C 11.035156 0.175781 9.804688 0.390625 8.421875 0.390625 C 7.191406 0.390625 5.976562 0.207031 4.78125 -0.15625 C 3.59375 -0.519531 2.472656 -1.09375 1.421875 -1.875 C 1.222656 -2.019531 1.1875 -2.207031 1.3125 -2.4375 L 2.265625 -4.0625 C 2.398438 -4.300781 2.585938 -4.335938 2.828125 -4.171875 C 3.679688 -3.535156 4.582031 -3.046875 5.53125 -2.703125 C 6.488281 -2.359375 7.472656 -2.1875 8.484375 -2.1875 C 9.660156 -2.1875 10.648438 -2.425781 11.453125 -2.90625 C 12.253906 -3.394531 12.65625 -4.097656 12.65625 -5.015625 C 12.65625 -5.679688 12.441406 -6.195312 12.015625 -6.5625 C 11.597656 -6.925781 11.066406 -7.203125 10.421875 -7.390625 C 9.785156 -7.578125 9.140625 -7.726562 8.484375 -7.84375 C 7.847656 -7.988281 7.132812 -8.164062 6.34375 -8.375 C 5.550781 -8.59375 4.796875 -8.90625 4.078125 -9.3125 C 3.359375 -9.726562 2.765625 -10.269531 2.296875 -10.9375 C 1.828125 -11.613281 1.59375 -12.457031 1.59375 -13.46875 C 1.59375 -14.675781 1.925781 -15.660156 2.59375 -16.421875 C 3.269531 -17.191406 4.132812 -17.757812 5.1875 -18.125 C 6.25 -18.488281 7.375 -18.671875 8.5625 -18.671875 C 9.664062 -18.671875 10.722656 -18.53125 11.734375 -18.25 C 12.753906 -17.96875 13.742188 -17.554688 14.703125 -17.015625 C 14.960938 -16.890625 15.007812 -16.710938 14.84375 -16.484375 L 13.890625 -14.890625 C 13.773438 -14.648438 13.597656 -14.601562 13.359375 -14.75 C 12.628906 -15.144531 11.847656 -15.457031 11.015625 -15.6875 C 10.179688 -15.925781 9.316406 -16.046875 8.421875 -16.046875 C 7.191406 -16.046875 6.222656 -15.816406 5.515625 -15.359375 C 4.804688 -14.898438 4.453125 -14.269531 4.453125 -13.46875 C 4.453125 -12.832031 4.65625 -12.328125 5.0625 -11.953125 C 5.476562 -11.578125 6.039062 -11.28125 6.75 -11.0625 C 7.457031 -10.851562 8.222656 -10.664062 9.046875 -10.5 C 9.753906 -10.363281 10.488281 -10.1875 11.25 -9.96875 C 12.019531 -9.757812 12.726562 -9.472656 13.375 -9.109375 C 14.03125 -8.742188 14.5625 -8.238281 14.96875 -7.59375 C 15.382812 -6.957031 15.59375 -6.144531 15.59375 -5.15625 Z M 15.59375 -5.15625 "/></g></g></g><g fill="#38b6ff" fill-opacity="1"><g transform="translate(75.666829, 38.273294)"><g><path d="M 2.796875 0 C 2.535156 0 2.40625 -0.128906 2.40625 -0.390625 L 2.40625 -16.796875 C 2.40625 -17.035156 2.5 -17.203125 2.6875 -17.296875 C 3.695312 -17.710938 4.773438 -18.046875 5.921875 -18.296875 C 7.066406 -18.546875 8.25 -18.671875 9.46875 -18.671875 C 11.050781 -18.671875 12.4375 -18.410156 13.625 -17.890625 C 14.820312 -17.367188 15.753906 -16.546875 16.421875 -15.421875 C 17.097656 -14.304688 17.4375 -12.84375 17.4375 -11.03125 L 17.4375 -0.390625 C 17.4375 -0.128906 17.296875 0 17.015625 0 L 14.921875 0 C 14.660156 0 14.53125 -0.128906 14.53125 -0.390625 L 14.53125 -10.96875 C 14.53125 -12.800781 14.085938 -14.101562 13.203125 -14.875 C 12.316406 -15.65625 11.070312 -16.046875 9.46875 -16.046875 C 8.738281 -16.046875 7.992188 -15.988281 7.234375 -15.875 C 6.484375 -15.757812 5.835938 -15.609375 5.296875 -15.421875 L 5.296875 -0.390625 C 5.296875 -0.128906 5.15625 0 4.875 0 Z M 2.796875 0 "/></g></g></g><g fill="#38b6ff" fill-opacity="1"><g transform="translate(95.360566, 38.273294)"><g><path d="M 17.328125 -6.546875 C 17.328125 -4.472656 16.628906 -2.796875 15.234375 -1.515625 C 13.847656 -0.242188 11.953125 0.390625 9.546875 0.390625 C 7.160156 0.390625 5.265625 -0.242188 3.859375 -1.515625 C 2.460938 -2.796875 1.765625 -4.472656 1.765625 -6.546875 L 1.765625 -11.640625 C 1.765625 -13.023438 2.082031 -14.238281 2.71875 -15.28125 C 3.351562 -16.332031 4.253906 -17.160156 5.421875 -17.765625 C 6.585938 -18.367188 7.960938 -18.671875 9.546875 -18.671875 C 11.148438 -18.671875 12.535156 -18.367188 13.703125 -17.765625 C 14.867188 -17.160156 15.765625 -16.332031 16.390625 -15.28125 C 17.015625 -14.238281 17.328125 -13.023438 17.328125 -11.640625 Z M 4.703125 -6.546875 C 4.703125 -5.222656 5.113281 -4.164062 5.9375 -3.375 C 6.757812 -2.582031 7.960938 -2.1875 9.546875 -2.1875 C 11.148438 -2.1875 12.363281 -2.582031 13.1875 -3.375 C 14.007812 -4.164062 14.421875 -5.222656 14.421875 -6.546875 L 14.421875 -11.640625 C 14.421875 -12.984375 14.007812 -14.050781 13.1875 -14.84375 C 12.363281 -15.644531 11.148438 -16.046875 9.546875 -16.046875 C 7.960938 -16.046875 6.757812 -15.644531 5.9375 -14.84375 C 5.113281 -14.050781 4.703125 -12.984375 4.703125 -11.640625 Z M 4.703125 -6.546875 "/></g></g></g><g fill="#38b6ff" fill-opacity="1"><g transform="translate(114.241055, 38.273294)"><g><path d="M 6.328125 0 C 6.066406 0 5.925781 -0.117188 5.90625 -0.359375 L 0.640625 -17.78125 C 0.566406 -18.113281 0.671875 -18.28125 0.953125 -18.28125 L 3.140625 -18.28125 C 3.378906 -18.28125 3.535156 -18.160156 3.609375 -17.921875 L 5.9375 -9.546875 C 6.082031 -9.046875 6.253906 -8.394531 6.453125 -7.59375 C 6.648438 -6.800781 6.847656 -6.003906 7.046875 -5.203125 C 7.253906 -4.398438 7.414062 -3.757812 7.53125 -3.28125 L 7.609375 -3.28125 C 7.835938 -4.25 8.078125 -5.226562 8.328125 -6.21875 C 8.578125 -7.207031 8.832031 -8.140625 9.09375 -9.015625 L 11.78125 -17.609375 C 11.84375 -17.847656 11.984375 -17.96875 12.203125 -17.96875 L 14.53125 -17.96875 C 14.738281 -17.96875 14.878906 -17.847656 14.953125 -17.609375 L 17.640625 -9.015625 C 17.898438 -8.140625 18.160156 -7.207031 18.421875 -6.21875 C 18.679688 -5.226562 18.929688 -4.25 19.171875 -3.28125 L 19.203125 -3.28125 C 19.316406 -3.757812 19.472656 -4.390625 19.671875 -5.171875 C 19.878906 -5.960938 20.085938 -6.765625 20.296875 -7.578125 C 20.503906 -8.390625 20.671875 -9.046875 20.796875 -9.546875 L 23.15625 -17.921875 C 23.1875 -18.160156 23.328125 -18.28125 23.578125 -18.28125 L 25.78125 -18.28125 C 26.101562 -18.28125 26.207031 -18.113281 26.09375 -17.78125 L 20.859375 -0.359375 C 20.785156 -0.117188 20.632812 0 20.40625 0 L 17.921875 0 C 17.660156 0 17.519531 -0.117188 17.5 -0.359375 L 14.53125 -9.96875 C 14.289062 -10.75 14.078125 -11.53125 13.890625 -12.3125 C 13.703125 -13.101562 13.550781 -13.796875 13.4375 -14.390625 L 13.328125 -14.390625 C 13.191406 -13.796875 13.019531 -13.101562 12.8125 -12.3125 C 12.613281 -11.53125 12.410156 -10.75 12.203125 -9.96875 L 9.234375 -0.359375 C 9.203125 -0.117188 9.054688 0 8.796875 0 Z M 6.328125 0 "/></g></g></g><g fill="#38b6ff" fill-opacity="1"><g transform="translate(139.556295, 38.273294)"><g><path d="M 5.6875 -1.765625 C 5.6875 -1.203125 5.503906 -0.738281 5.140625 -0.375 C 4.773438 -0.0078125 4.3125 0.171875 3.75 0.171875 C 3.15625 0.171875 2.679688 -0.0078125 2.328125 -0.375 C 1.972656 -0.738281 1.796875 -1.203125 1.796875 -1.765625 C 1.796875 -2.359375 1.972656 -2.835938 2.328125 -3.203125 C 2.679688 -3.566406 3.15625 -3.75 3.75 -3.75 C 4.3125 -3.75 4.773438 -3.566406 5.140625 -3.203125 C 5.503906 -2.835938 5.6875 -2.359375 5.6875 -1.765625 Z M 5.6875 -1.765625 "/></g></g></g><g fill="#38b6ff" fill-opacity="1"><g transform="translate(147.016579, 38.273294)"><g><path d="M 2.15625 -16.828125 C 2.976562 -17.398438 3.953125 -17.847656 5.078125 -18.171875 C 6.210938 -18.503906 7.46875 -18.671875 8.84375 -18.671875 C 11.007812 -18.671875 12.722656 -18.097656 13.984375 -16.953125 C 15.242188 -15.804688 15.875 -14.09375 15.875 -11.8125 L 15.875 -1.203125 C 15.875 -0.960938 15.769531 -0.8125 15.5625 -0.75 C 14.738281 -0.4375 13.722656 -0.171875 12.515625 0.046875 C 11.316406 0.273438 10.054688 0.390625 8.734375 0.390625 C 7.410156 0.390625 6.171875 0.203125 5.015625 -0.171875 C 3.859375 -0.554688 2.921875 -1.175781 2.203125 -2.03125 C 1.484375 -2.894531 1.125 -4.019531 1.125 -5.40625 C 1.125 -7.289062 1.828125 -8.695312 3.234375 -9.625 C 4.640625 -10.5625 6.472656 -11.03125 8.734375 -11.03125 C 9.460938 -11.03125 10.203125 -10.988281 10.953125 -10.90625 C 11.710938 -10.820312 12.390625 -10.722656 12.984375 -10.609375 L 12.984375 -11.734375 C 12.984375 -13.171875 12.65625 -14.25 12 -14.96875 C 11.351562 -15.6875 10.265625 -16.046875 8.734375 -16.046875 C 7.742188 -16.046875 6.8125 -15.921875 5.9375 -15.671875 C 5.0625 -15.429688 4.320312 -15.125 3.71875 -14.75 C 3.5 -14.601562 3.320312 -14.632812 3.1875 -14.84375 L 2.15625 -16.34375 C 2.039062 -16.550781 2.039062 -16.710938 2.15625 -16.828125 Z M 4.03125 -5.40625 C 4.03125 -4.34375 4.472656 -3.539062 5.359375 -3 C 6.242188 -2.457031 7.367188 -2.1875 8.734375 -2.1875 C 9.535156 -2.1875 10.3125 -2.25 11.0625 -2.375 C 11.820312 -2.507812 12.460938 -2.660156 12.984375 -2.828125 L 12.984375 -8.125 C 12.410156 -8.25 11.738281 -8.351562 10.96875 -8.4375 C 10.207031 -8.519531 9.460938 -8.5625 8.734375 -8.5625 C 7.128906 -8.5625 5.941406 -8.273438 5.171875 -7.703125 C 4.410156 -7.140625 4.03125 -6.375 4.03125 -5.40625 Z M 4.03125 -5.40625 "/></g></g></g><g fill="#38b6ff" fill-opacity="1"><g transform="translate(165.083908, 38.273294)"><g><path d="M 5.65625 -23.40625 C 5.65625 -22.914062 5.488281 -22.503906 5.15625 -22.171875 C 4.832031 -21.835938 4.421875 -21.671875 3.921875 -21.671875 C 3.429688 -21.671875 3.015625 -21.835938 2.671875 -22.171875 C 2.328125 -22.503906 2.15625 -22.914062 2.15625 -23.40625 C 2.15625 -23.925781 2.328125 -24.34375 2.671875 -24.65625 C 3.015625 -24.976562 3.429688 -25.140625 3.921875 -25.140625 C 4.421875 -25.140625 4.832031 -24.976562 5.15625 -24.65625 C 5.488281 -24.34375 5.65625 -23.925781 5.65625 -23.40625 Z M 2.859375 0 C 2.578125 0 2.4375 -0.128906 2.4375 -0.390625 L 2.4375 -17.859375 C 2.4375 -18.140625 2.578125 -18.28125 2.859375 -18.28125 L 4.953125 -18.28125 C 5.210938 -18.28125 5.34375 -18.140625 5.34375 -17.859375 L 5.34375 -0.390625 C 5.34375 -0.128906 5.210938 0 4.953125 0 Z M 2.859375 0 "/></g></g></g></g></g></svg>